<svg width="120" height="204" viewBox="0 0 120 204" fill="none" xmlns="http://www.w3.org/2000/svg">
<mask id="mask0_3_18" style="mask-type:luminance" maskUnits="userSpaceOnUse" x="0" y="0" width="120" height="204">
<path d="M2.67 40.14C4.31 38.26 6.73 37.33 9.84 37.33C15.77 37.33 19.17 40.6 19.34 45.99H13.15C13.06 43.7 12.03 42.34 9.84 42.34C8.72 42.34 7.94 42.72 7.33 43.58C6.61 44.62 6.38 46.21 6.38 49.37C6.38 52.53 6.61 54.15 7.33 55.22C7.93 56.09 8.71 56.46 9.84 56.46C12.03 56.46 13.09 55.07 13.15 52.81H19.34C19.17 58.2 15.77 61.44 9.84 61.44C6.73 61.44 4.31 60.51 2.67 58.63C0.769998 56.46 0.139999 53.36 0.139999 49.37C0.139999 45.38 0.769998 42.31 2.67 40.13V40.14ZM33.63 37.74L40.95 61.05H34.67L33.72 57.32H27.24L26.29 61.05H20.04L27.36 37.74H33.64H33.63ZM30.49 44.51L28.42 52.62H32.54L30.49 44.51ZM53.73 55.97C53.61 53.89 52.92 53.22 51.22 53.22H48.8V61.04H42.55V37.73H52.6C57.64 37.73 60.26 40.57 60.26 44.85C60.26 48.01 58.7 50 56.31 50.7C58.7 51.13 59.65 52.61 59.85 55.68L60.05 58.84C60.11 59.8 60.28 60.49 60.54 61.04H54.32C54.06 60.55 53.95 59.65 53.89 58.87L53.72 55.97H53.73ZM51.34 48.24C53.1 48.24 54.02 47.43 54.02 45.49C54.02 43.55 53.1 42.71 51.34 42.71H48.81V48.24H51.34ZM68.42 61.04L61.1 37.73H67.35L71.56 53.94L75.74 37.73H82.02L74.7 61.04H68.42ZM83.63 37.73H98.72V42.71H89.88V46.59H97.54V51.6H89.88V56.09H98.89V61.04H83.63V37.73ZM101.23 61.04V37.73H110.27C117.67 37.73 119.72 42.19 119.72 49.37C119.72 56.55 117.65 61.04 110.27 61.04H101.23ZM110.07 42.51H107.48V56.26H110.07C112.52 56.26 113.5 55.04 113.5 49.37C113.5 43.7 112.41 42.51 110.07 42.51ZM50.53 6.34V0.0899963H73.84V6.34H50.53ZM63.27 15.15H50.53V9.13H73.84V15.15L61.07 20.91H73.84V26.93H50.53V20.91L63.27 15.15ZM50.53 80.08L61.07 76.13H50.53V70.14H73.84V75.93L56.73 82.35L73.84 88.77V94.53H50.53V88.54H61.07L50.53 84.59V80.07V80.08ZM73.84 110.18V116.55L59.71 109.55H50.53V103.27H59.71L73.84 96.27V102.64L64.86 106.41L73.84 110.18ZM50.13 135.32C50.13 129.67 53.08 126.59 57.19 126.59H57.65V132.81H57.13C55.77 132.81 54.84 133.65 54.84 135.32C54.84 136.99 55.77 137.83 57.13 137.83C58.49 137.83 59.3 137.05 59.74 134.83L60.12 133.07C60.9 129.1 63.04 126.39 67.3 126.39C71.3 126.39 74.25 129.5 74.25 134.77C74.25 140.04 71.18 143.15 67.59 143.15H67.18V136.93H67.59C68.78 136.93 69.5 136.15 69.5 134.77C69.5 133.39 68.78 132.61 67.59 132.61C66.29 132.61 65.56 133.47 65.1 135.69L64.78 137.45C63.91 141.66 61.57 144.05 57.43 144.05C53.29 144.05 50.13 141.14 50.13 135.32ZM52.94 162.71C51.06 161.07 50.13 158.62 50.13 155.51C50.13 152.4 51.06 149.98 52.94 148.34C55.11 146.44 58.21 145.81 62.2 145.81C66.19 145.81 69.26 146.44 71.44 148.34C73.32 149.98 74.25 152.4 74.25 155.51C74.25 158.62 73.32 161.07 71.44 162.71C69.27 164.58 66.14 165.22 62.2 165.22C58.26 165.22 55.11 164.59 52.94 162.71ZM68 158.04C68.87 157.43 69.25 156.63 69.25 155.51C69.25 154.39 68.87 153.61 68 153C66.96 152.28 65.34 152.05 62.21 152.05C59.08 152.05 57.43 152.28 56.36 153C55.49 153.6 55.11 154.38 55.11 155.51C55.11 156.64 55.49 157.44 56.36 158.04C57.43 158.73 59.02 158.96 62.21 158.96C65.4 158.96 66.96 158.73 68 158.04ZM59.26 167.51H73.85V173.73H58.88C56.25 173.73 55.12 174.82 55.12 176.75C55.12 178.68 56.25 179.77 58.88 179.77H73.85V185.99H59.26C53.61 185.99 50.14 183.05 50.14 176.74C50.14 170.43 53.61 167.49 59.26 167.49V167.51ZM73.85 188.71V194.96H55.49V203.97H50.54V188.71H73.85Z" fill="white"/>
</mask>
<g mask="url(#mask0_3_18)">
<g filter="url(#filter0_d_3_18)">
<path d="M53.98 45.49C53.98 43.49 53.06 42.71 51.3 42.71H48.77V48.24H51.3C53.06 48.24 53.98 47.43 53.98 45.49Z" fill="white"/>
<path d="M67.94 153C66.9 152.28 65.28 152.05 62.15 152.05C59.02 152.05 57.37 152.28 56.3 153C55.43 153.6 55.05 154.38 55.05 155.51C55.05 156.64 55.43 157.44 56.3 158.04C57.37 158.73 58.96 158.96 62.15 158.96C65.34 158.96 66.9 158.73 67.94 158.04C68.81 157.43 69.19 156.63 69.19 155.51C69.19 154.39 68.81 153.61 67.94 153Z" fill="white"/>
<path d="M28.38 52.61H32.5L30.45 44.51L28.38 52.61Z" fill="white"/>
<path d="M110.03 42.51H107.44V56.26H110.03C112.48 56.26 113.46 55.04 113.46 49.37C113.46 43.7 112.37 42.51 110.03 42.51Z" fill="white"/>
<path d="M-106.51 -11.35V215.42H233.65V-11.35H-106.51ZM50.48 0.0899944H73.79V6.33999H50.48V0.0899944ZM50.48 20.91L63.22 15.15H50.48V9.12999H73.79V15.15L61.02 20.91H73.79V26.93H50.48V20.91ZM7.3 55.22C7.89999 56.09 8.67999 56.46 9.80999 56.46C12 56.46 13.06 55.07 13.12 52.81H19.31C19.14 58.2 15.74 61.44 9.80999 61.44C6.69999 61.44 4.27999 60.51 2.63999 58.63C0.73999 56.46 0.109993 53.36 0.109993 49.37C0.109993 45.38 0.73999 42.31 2.63999 40.13C4.27999 38.25 6.69999 37.32 9.80999 37.32C15.74 37.32 19.14 40.59 19.31 45.98H13.12C13.03 43.69 12 42.33 9.80999 42.33C8.68999 42.33 7.91 42.71 7.3 43.57C6.57999 44.61 6.34999 46.2 6.34999 49.36C6.34999 52.52 6.57999 54.14 7.3 55.21V55.22ZM34.63 61.04L33.68 57.31H27.2L26.25 61.04H20L27.32 37.73H33.6L40.92 61.04H34.64H34.63ZM48.77 61.04H42.52V37.73H52.57C57.61 37.73 60.23 40.57 60.23 44.85C60.23 48.01 58.67 50 56.28 50.7C58.67 51.13 59.62 52.61 59.82 55.68L60.02 58.84C60.08 59.8 60.25 60.49 60.51 61.04H54.29C54.03 60.55 53.92 59.65 53.86 58.87L53.69 55.97C53.58 53.89 52.88 53.22 51.18 53.22H48.76V61.04H48.77ZM73.79 88.78V94.54H50.48V88.55H61.02L50.48 84.6V80.08L61.02 76.13H50.48V70.14H73.79V75.93L56.68 82.35L73.79 88.77V88.78ZM73.79 110.18V116.55L59.66 109.55H50.48V103.27H59.66L73.79 96.27V102.64L64.81 106.41L73.79 110.18ZM73.79 194.96H55.43V203.97H50.48V188.7H73.79V194.95V194.96ZM73.79 173.73H58.82C56.19 173.73 55.06 174.82 55.06 176.75C55.06 178.68 56.19 179.77 58.82 179.77H73.79V185.99H59.2C53.55 185.99 50.08 183.05 50.08 176.74C50.08 170.43 53.55 167.49 59.2 167.49H73.79V173.71V173.73ZM71.39 162.7C69.22 164.57 66.09 165.21 62.15 165.21C58.21 165.21 55.06 164.58 52.89 162.7C51.01 161.06 50.08 158.61 50.08 155.5C50.08 152.39 51.01 149.97 52.89 148.33C55.06 146.43 58.16 145.8 62.15 145.8C66.14 145.8 69.21 146.43 71.39 148.33C73.27 149.97 74.2 152.39 74.2 155.5C74.2 158.61 73.27 161.06 71.39 162.7ZM67.54 143.15H67.13V136.93H67.54C68.73 136.93 69.45 136.15 69.45 134.77C69.45 133.39 68.73 132.61 67.54 132.61C66.24 132.61 65.51 133.47 65.05 135.69L64.73 137.45C63.86 141.66 61.52 144.05 57.38 144.05C53.24 144.05 50.08 141.14 50.08 135.32C50.08 129.5 53.03 126.59 57.14 126.59H57.6V132.81H57.08C55.72 132.81 54.79 133.65 54.79 135.32C54.79 136.99 55.72 137.83 57.08 137.83C58.44 137.83 59.25 137.05 59.69 134.83L60.07 133.07C60.85 129.1 62.99 126.39 67.25 126.39C71.25 126.39 74.2 129.5 74.2 134.77C74.2 140.04 71.13 143.15 67.54 143.15ZM74.67 61.03H68.39L61.07 37.72H67.32L71.53 53.93L75.71 37.72H81.99L74.67 61.03ZM98.86 61.03H83.59V37.72H98.68V42.7H89.84V46.58H97.5V51.59H89.84V56.08H98.85V61.03H98.86ZM110.24 61.03H101.2V37.72H110.24C117.64 37.72 119.69 42.18 119.69 49.36C119.69 56.54 117.62 61.03 110.24 61.03Z" fill="white"/>
</g>
</g>
<defs>
<filter id="filter0_d_3_18" x="-107.08" y="-11.92" width="343.56" height="230.17" filterUnits="userSpaceOnUse" color-interpolation-filters="sRGB">
<feFlood flood-opacity="0" result="BackgroundImageFix"/>
<feColorMatrix in="SourceAlpha" type="matrix" values="0 0 0 0 0 0 0 0 0 0 0 0 0 0 0 0 0 0 127 0" result="hardAlpha"/>
<feOffset dx="1.13" dy="1.13"/>
<feGaussianBlur stdDeviation="0.85"/>
<feColorMatrix type="matrix" values="0 0 0 0 0.529412 0 0 0 0 0.529412 0 0 0 0 0.529412 0 0 0 0.75 0"/>
<feBlend mode="normal" in2="BackgroundImageFix" result="effect1_dropShadow_3_18"/>
<feBlend mode="normal" in="SourceGraphic" in2="effect1_dropShadow_3_18" result="shape"/>
</filter>
</defs>
</svg>
