<svg width="14" height="14" viewBox="0 0 14 14" fill="none" xmlns="http://www.w3.org/2000/svg">
<path d="M3.0625 11.375H10.9375C11.1038 11.3751 11.2638 11.4382 11.3853 11.5517C11.5068 11.6652 11.5807 11.8206 11.592 11.9865C11.6034 12.1524 11.5513 12.3164 11.4464 12.4454C11.3414 12.5744 11.1915 12.6587 11.0268 12.6814L10.9375 12.6875H3.0625C2.89623 12.6874 2.73618 12.6243 2.61468 12.5108C2.49319 12.3973 2.41931 12.2419 2.40798 12.076C2.39664 11.9101 2.4487 11.7461 2.55363 11.6171C2.65856 11.4881 2.80853 11.4038 2.97325 11.3811L3.0625 11.375ZM6.91075 0.881125L7 0.875C7.15858 0.875007 7.3118 0.932437 7.43131 1.03667C7.55083 1.14091 7.62856 1.28489 7.65013 1.442L7.65625 1.53125V8.25825L9.62937 6.286C9.74065 6.17476 9.88819 6.1072 10.0451 6.09564C10.202 6.08408 10.3579 6.12928 10.4843 6.223L10.5577 6.286C10.669 6.39728 10.7365 6.54481 10.7481 6.70173C10.7597 6.85865 10.7145 7.01449 10.6207 7.14088L10.5577 7.21438L7.46375 10.3075C7.35263 10.4186 7.20533 10.4862 7.0486 10.4979C6.89188 10.5097 6.73616 10.4647 6.60975 10.3714L6.53625 10.3075L3.44225 7.21438C3.32483 7.09728 3.2561 6.94007 3.24987 6.77436C3.24363 6.60865 3.30037 6.44672 3.40866 6.32114C3.51695 6.19555 3.66878 6.11562 3.8336 6.09742C3.99843 6.07921 4.16403 6.12408 4.29712 6.223L4.37063 6.286L6.34375 8.26V1.53125C6.34376 1.37267 6.40119 1.21945 6.50542 1.09994C6.60966 0.980421 6.75364 0.902692 6.91075 0.881125Z" fill="black"/>
</svg>
