<svg width="26" height="26" viewBox="0 0 26 26" fill="none" xmlns="http://www.w3.org/2000/svg">
<g clip-path="url(#clip0_5_452)">
<path d="M3.80896 22.191C2.56732 20.9918 1.57696 19.5573 0.895638 17.9712C0.214321 16.3852 -0.1443 14.6793 -0.159299 12.9532C-0.174299 11.2271 0.154623 9.51524 0.808275 7.91758C1.46193 6.31993 2.42722 4.86846 3.64782 3.64785C4.86843 2.42725 6.3199 1.46196 7.91755 0.808305C9.51521 0.154654 11.227 -0.174268 12.9532 -0.159269C14.6793 -0.144269 16.3852 0.214352 17.9712 0.895669C19.5573 1.57699 20.9917 2.56735 22.191 3.80899C24.559 6.26082 25.8693 9.54464 25.8397 12.9532C25.8101 16.3618 24.4429 19.6223 22.0326 22.0326C19.6223 24.4429 16.3617 25.8101 12.9532 25.8397C9.54461 25.8694 6.26078 24.559 3.80896 22.191ZM20.358 20.358C22.3094 18.4065 23.4057 15.7598 23.4057 13C23.4057 10.2402 22.3094 7.59345 20.358 5.64199C18.4065 3.69052 15.7597 2.5942 13 2.5942C10.2402 2.5942 7.59342 3.69052 5.64196 5.64199C3.69049 7.59345 2.59417 10.2402 2.59417 13C2.59417 15.7598 3.69049 18.4065 5.64196 20.358C7.59342 22.3094 10.2402 23.4058 13 23.4058C15.7597 23.4058 18.4065 22.3094 20.358 20.358ZM9.09996 7.79999L19.5 13L9.09996 18.2V7.79999Z" fill="black"/>
</g>
<defs>
<clipPath id="clip0_5_452">
<rect width="26" height="26" fill="white"/>
</clipPath>
</defs>
</svg>
