<svg width="45" height="45" viewBox="0 0 45 45" fill="none" xmlns="http://www.w3.org/2000/svg">
<g clip-path="url(#clip0_3_2)">
<path d="M37.5 33.75C37.9779 33.7505 38.4376 33.9335 38.7851 34.2616C39.1326 34.5897 39.3417 35.038 39.3697 35.5151C39.3977 35.9922 39.2425 36.462 38.9358 36.8284C38.629 37.1949 38.1939 37.4304 37.7194 37.4869L37.5 37.5H7.5C7.0221 37.4995 6.56244 37.3165 6.21493 36.9884C5.86743 36.6603 5.65831 36.212 5.6303 35.7349C5.6023 35.2578 5.75751 34.788 6.06425 34.4216C6.37098 34.0551 6.80607 33.8196 7.28062 33.7631L7.5 33.75H37.5ZM37.5 20.625C37.9973 20.625 38.4742 20.8225 38.8258 21.1742C39.1775 21.5258 39.375 22.0027 39.375 22.5C39.375 22.9973 39.1775 23.4742 38.8258 23.8258C38.4742 24.1775 37.9973 24.375 37.5 24.375H7.5C7.00272 24.375 6.52581 24.1775 6.17417 23.8258C5.82254 23.4742 5.625 22.9973 5.625 22.5C5.625 22.0027 5.82254 21.5258 6.17417 21.1742C6.52581 20.8225 7.00272 20.625 7.5 20.625H37.5ZM37.5 7.5C37.9973 7.5 38.4742 7.69754 38.8258 8.04918C39.1775 8.40081 39.375 8.87772 39.375 9.375C39.375 9.87228 39.1775 10.3492 38.8258 10.7008C38.4742 11.0525 37.9973 11.25 37.5 11.25H7.5C7.00272 11.25 6.52581 11.0525 6.17417 10.7008C5.82254 10.3492 5.625 9.87228 5.625 9.375C5.625 8.87772 5.82254 8.40081 6.17417 8.04918C6.52581 7.69754 7.00272 7.5 7.5 7.5H37.5Z" fill="black"/>
</g>
<defs>
<clipPath id="clip0_3_2">
<rect width="45" height="45" fill="white"/>
</clipPath>
</defs>
</svg>
