<svg width="16" height="18" viewBox="0 0 16 18" fill="none" xmlns="http://www.w3.org/2000/svg">
<path d="M8 13.3519L3 7.78863L4.4 6.17527L7 9.06818L7 4.00507e-10L9 5.14937e-10L9 9.06818L11.6 6.17527L13 7.78863L8 13.3519ZM2 17.8026C1.45 17.8026 0.979333 17.5849 0.588 17.1494C0.196666 16.714 0.000666667 16.19 7.1951e-10 15.5773L5.65329e-10 12.2393L2 12.2393L2 15.5773L14 15.5773L14 12.2393L16 12.2393L16 15.5773C16 16.1892 15.8043 16.7133 15.413 17.1494C15.0217 17.5856 14.5507 17.8033 14 17.8026L2 17.8026Z" fill="black"/>
</svg>
