<svg width="20" height="20" viewBox="0 0 20 20" fill="none" xmlns="http://www.w3.org/2000/svg">
<g id="lucide:file-down">
<g id="Group">
<path id="Vector" d="M12.0833 1.66669H4.99999C4.55797 1.66669 4.13404 1.84228 3.82148 2.15484C3.50892 2.4674 3.33333 2.89133 3.33333 3.33335V16.6667C3.33333 17.1087 3.50892 17.5326 3.82148 17.8452C4.13404 18.1578 4.55797 18.3334 4.99999 18.3334H15C15.442 18.3334 15.8659 18.1578 16.1785 17.8452C16.4911 17.5326 16.6667 17.1087 16.6667 16.6667V6.25002L12.0833 1.66669Z" stroke="black" stroke-width="2" stroke-linecap="round" stroke-linejoin="round"/>
<path id="Vector_2" d="M11.6667 1.66669V6.66669H16.6667M10 15V10M10 15L7.5 12.5M10 15L12.5 12.5" stroke="black" stroke-width="2" stroke-linecap="round" stroke-linejoin="round"/>
</g>
</g>
</svg>
